<?xml version="1.0" encoding="utf-8" standalone="no"?>
<!DOCTYPE svg PUBLIC "-//W3C//DTD SVG 1.1//EN"
  "http://www.w3.org/Graphics/SVG/1.1/DTD/svg11.dtd">
<svg xmlns:xlink="http://www.w3.org/1999/xlink" width="573.645pt" height="504.541348pt" viewBox="0 0 573.645 504.541348" xmlns="http://www.w3.org/2000/svg" version="1.1">
 <metadata>
  <rdf:RDF xmlns:dc="http://purl.org/dc/elements/1.1/" xmlns:cc="http://creativecommons.org/ns#" xmlns:rdf="http://www.w3.org/1999/02/22-rdf-syntax-ns#">
   <cc:Work>
    <dc:type rdf:resource="http://purl.org/dc/dcmitype/StillImage"/>
    <dc:date>2025-09-26T19:50:15.458154</dc:date>
    <dc:format>image/svg+xml</dc:format>
    <dc:creator>
     <cc:Agent>
      <dc:title>Matplotlib v3.10.6, https://matplotlib.org/</dc:title>
     </cc:Agent>
    </dc:creator>
   </cc:Work>
  </rdf:RDF>
 </metadata>
 <defs>
  <style type="text/css">*{stroke-linejoin: round; stroke-linecap: butt}</style>
 </defs>
 <g id="figure_1">
  <g id="patch_1">
   <path d="M 0 504.541348 
L 573.645 504.541348 
L 573.645 0 
L 0 0 
z
" style="fill: #ffffff"/>
  </g>
  <g id="axes_1">
   <g id="patch_2">
    <path d="M 91.453264 368.633197 
L 149.097893 468.476622 
L 206.742521 368.633197 
z
" clip-path="url(#p7dcbdd318a)" style="fill: #cccccc; stroke: #cccccc; stroke-linejoin: miter"/>
   </g>
   <g id="patch_3">
    <path d="M 368.147479 368.633197 
L 425.792107 468.476622 
L 483.436736 368.633197 
z
" clip-path="url(#p7dcbdd318a)" style="fill: #cccccc; stroke: #cccccc; stroke-linejoin: miter"/>
   </g>
   <g id="patch_4">
    <path d="M 229.800372 328.695827 
L 345.089628 328.695827 
L 287.445 228.852403 
z
" clip-path="url(#p7dcbdd318a)" style="fill: #cccccc; stroke: #cccccc; stroke-linejoin: miter"/>
   </g>
   <g id="patch_5">
    <path d="M 229.800372 129.008978 
L 287.445 228.852403 
L 345.089628 129.008978 
z
" clip-path="url(#p7dcbdd318a)" style="fill: #cccccc; stroke: #cccccc; stroke-linejoin: miter"/>
   </g>
   <g id="PathCollection_1">
    <defs>
     <path id="m118993136e" d="M 0 2.738613 
C 0.726289 2.738613 1.422928 2.450055 1.936492 1.936492 
C 2.450055 1.422928 2.738613 0.726289 2.738613 0 
C 2.738613 -0.726289 2.450055 -1.422928 1.936492 -1.936492 
C 1.422928 -2.450055 0.726289 -2.738613 0 -2.738613 
C -0.726289 -2.738613 -1.422928 -2.450055 -1.936492 -1.936492 
C -2.450055 -1.422928 -2.738613 -0.726289 -2.738613 0 
C -2.738613 0.726289 -2.450055 1.422928 -1.936492 1.936492 
C -1.422928 2.450055 -0.726289 2.738613 0 2.738613 
z
" style="stroke: #000000; stroke-opacity: 0.8"/>
    </defs>
    <g clip-path="url(#p7dcbdd318a)">
     <use xlink:href="#m118993136e" x="102.169442" y="443.988329" style="fill: #ff0000; fill-opacity: 0.8; stroke: #000000; stroke-opacity: 0.8"/>
    </g>
   </g>
   <g id="PathCollection_2">
    <g clip-path="url(#p7dcbdd318a)">
     <use xlink:href="#m118993136e" x="333.977208" y="448.714557" style="fill: #ff0000; fill-opacity: 0.8; stroke: #000000; stroke-opacity: 0.8"/>
    </g>
   </g>
   <g id="PathCollection_3">
    <g clip-path="url(#p7dcbdd318a)">
     <use xlink:href="#m118993136e" x="216.70898" y="245.600029" style="fill: #ff0000; fill-opacity: 0.8; stroke: #000000; stroke-opacity: 0.8"/>
    </g>
   </g>
   <g id="PathCollection_4">
    <defs>
     <path id="m82a27dd721" d="M -2.738613 2.738613 
L 2.738613 2.738613 
L 2.738613 -2.738613 
L -2.738613 -2.738613 
z
" style="stroke: #000000; stroke-opacity: 0.8"/>
    </defs>
    <g clip-path="url(#p7dcbdd318a)">
     <use xlink:href="#m82a27dd721" x="173.378832" y="465.006387" style="fill: #0000ff; fill-opacity: 0.8; stroke: #000000; stroke-opacity: 0.8"/>
    </g>
   </g>
   <g id="PathCollection_5">
    <g clip-path="url(#p7dcbdd318a)">
     <use xlink:href="#m82a27dd721" x="363.31053" y="403.466095" style="fill: #0000ff; fill-opacity: 0.8; stroke: #000000; stroke-opacity: 0.8"/>
    </g>
   </g>
   <g id="PathCollection_6">
    <g clip-path="url(#p7dcbdd318a)">
     <use xlink:href="#m82a27dd721" x="286.109833" y="269.750565" style="fill: #0000ff; fill-opacity: 0.8; stroke: #000000; stroke-opacity: 0.8"/>
    </g>
   </g>
   <g id="matplotlib.axis_1"/>
   <g id="matplotlib.axis_2"/>
   <g id="line2d_1">
    <path d="M 33.808636 468.476622 
L 149.097893 268.789773 
L 264.387149 468.476622 
L 33.808636 468.476622 
" clip-path="url(#p7dcbdd318a)" style="fill: none; stroke: #000000; stroke-linecap: square"/>
   </g>
   <g id="line2d_2">
    <path d="M 310.502851 468.476622 
L 425.792107 268.789773 
L 541.081364 468.476622 
L 310.502851 468.476622 
" clip-path="url(#p7dcbdd318a)" style="fill: none; stroke: #000000; stroke-linecap: square"/>
   </g>
   <g id="line2d_3">
    <path d="M 172.155744 228.852403 
L 287.445 29.165553 
L 402.734256 228.852403 
L 287.445 428.539252 
L 172.155744 228.852403 
" clip-path="url(#p7dcbdd318a)" style="fill: none; stroke: #000000; stroke-linecap: square"/>
   </g>
   <g id="line2d_4">
    <path d="M 33.808636 468.476622 
L 33.808636 468.476622 
" clip-path="url(#p7dcbdd318a)" style="fill: none; stroke-dasharray: 1,1.65; stroke-dashoffset: 0; stroke: #000000"/>
   </g>
   <g id="line2d_5">
    <path d="M 33.808636 468.476622 
L 149.097893 268.789773 
" clip-path="url(#p7dcbdd318a)" style="fill: none; stroke-dasharray: 1,1.65; stroke-dashoffset: 0; stroke: #000000"/>
   </g>
   <g id="line2d_6">
    <path d="M 33.808636 468.476622 
L 264.387149 468.476622 
" clip-path="url(#p7dcbdd318a)" style="fill: none; stroke-dasharray: 1,1.65; stroke-dashoffset: 0; stroke: #000000"/>
   </g>
   <g id="line2d_7">
    <path d="M 310.502851 468.476622 
L 310.502851 468.476622 
" clip-path="url(#p7dcbdd318a)" style="fill: none; stroke-dasharray: 1,1.65; stroke-dashoffset: 0; stroke: #000000"/>
   </g>
   <g id="line2d_8">
    <path d="M 310.502851 468.476622 
L 425.792107 268.789773 
" clip-path="url(#p7dcbdd318a)" style="fill: none; stroke-dasharray: 1,1.65; stroke-dashoffset: 0; stroke: #000000"/>
   </g>
   <g id="line2d_9">
    <path d="M 310.502851 468.476622 
L 541.081364 468.476622 
" clip-path="url(#p7dcbdd318a)" style="fill: none; stroke-dasharray: 1,1.65; stroke-dashoffset: 0; stroke: #000000"/>
   </g>
   <g id="line2d_10">
    <path d="M 172.155744 228.852403 
L 287.445 428.539252 
" clip-path="url(#p7dcbdd318a)" style="fill: none; stroke-dasharray: 1,1.65; stroke-dashoffset: 0; stroke: #000000"/>
   </g>
   <g id="line2d_11">
    <path d="M 172.155744 228.852403 
L 287.445 29.165553 
" clip-path="url(#p7dcbdd318a)" style="fill: none; stroke-dasharray: 1,1.65; stroke-dashoffset: 0; stroke: #000000"/>
   </g>
   <g id="line2d_12">
    <path d="M 79.924339 468.476622 
L 56.866488 428.539252 
" clip-path="url(#p7dcbdd318a)" style="fill: none; stroke-dasharray: 1,1.65; stroke-dashoffset: 0; stroke: #000000"/>
   </g>
   <g id="line2d_13">
    <path d="M 79.924339 468.476622 
L 172.155744 308.727142 
" clip-path="url(#p7dcbdd318a)" style="fill: none; stroke-dasharray: 1,1.65; stroke-dashoffset: 0; stroke: #000000"/>
   </g>
   <g id="line2d_14">
    <path d="M 56.866488 428.539252 
L 241.329298 428.539252 
" clip-path="url(#p7dcbdd318a)" style="fill: none; stroke-dasharray: 1,1.65; stroke-dashoffset: 0; stroke: #000000"/>
   </g>
   <g id="line2d_15">
    <path d="M 356.618554 468.476622 
L 333.560702 428.539252 
" clip-path="url(#p7dcbdd318a)" style="fill: none; stroke-dasharray: 1,1.65; stroke-dashoffset: 0; stroke: #000000"/>
   </g>
   <g id="line2d_16">
    <path d="M 356.618554 468.476622 
L 448.849959 308.727142 
" clip-path="url(#p7dcbdd318a)" style="fill: none; stroke-dasharray: 1,1.65; stroke-dashoffset: 0; stroke: #000000"/>
   </g>
   <g id="line2d_17">
    <path d="M 333.560702 428.539252 
L 518.023512 428.539252 
" clip-path="url(#p7dcbdd318a)" style="fill: none; stroke-dasharray: 1,1.65; stroke-dashoffset: 0; stroke: #000000"/>
   </g>
   <g id="line2d_18">
    <path d="M 195.213595 188.915033 
L 310.502851 388.601882 
" clip-path="url(#p7dcbdd318a)" style="fill: none; stroke-dasharray: 1,1.65; stroke-dashoffset: 0; stroke: #000000"/>
   </g>
   <g id="line2d_19">
    <path d="M 195.213595 268.789773 
L 310.502851 69.102923 
" clip-path="url(#p7dcbdd318a)" style="fill: none; stroke-dasharray: 1,1.65; stroke-dashoffset: 0; stroke: #000000"/>
   </g>
   <g id="line2d_20">
    <path d="M 126.040041 468.476622 
L 79.924339 388.601882 
" clip-path="url(#p7dcbdd318a)" style="fill: none; stroke-dasharray: 1,1.65; stroke-dashoffset: 0; stroke: #000000"/>
   </g>
   <g id="line2d_21">
    <path d="M 126.040041 468.476622 
L 195.213595 348.664512 
" clip-path="url(#p7dcbdd318a)" style="fill: none; stroke-dasharray: 1,1.65; stroke-dashoffset: 0; stroke: #000000"/>
   </g>
   <g id="line2d_22">
    <path d="M 79.924339 388.601882 
L 218.271446 388.601882 
" clip-path="url(#p7dcbdd318a)" style="fill: none; stroke-dasharray: 1,1.65; stroke-dashoffset: 0; stroke: #000000"/>
   </g>
   <g id="line2d_23">
    <path d="M 402.734256 468.476622 
L 356.618554 388.601882 
" clip-path="url(#p7dcbdd318a)" style="fill: none; stroke-dasharray: 1,1.65; stroke-dashoffset: 0; stroke: #000000"/>
   </g>
   <g id="line2d_24">
    <path d="M 402.734256 468.476622 
L 471.90781 348.664512 
" clip-path="url(#p7dcbdd318a)" style="fill: none; stroke-dasharray: 1,1.65; stroke-dashoffset: 0; stroke: #000000"/>
   </g>
   <g id="line2d_25">
    <path d="M 356.618554 388.601882 
L 494.965661 388.601882 
" clip-path="url(#p7dcbdd318a)" style="fill: none; stroke-dasharray: 1,1.65; stroke-dashoffset: 0; stroke: #000000"/>
   </g>
   <g id="line2d_26">
    <path d="M 218.271446 148.977663 
L 333.560702 348.664512 
" clip-path="url(#p7dcbdd318a)" style="fill: none; stroke-dasharray: 1,1.65; stroke-dashoffset: 0; stroke: #000000"/>
   </g>
   <g id="line2d_27">
    <path d="M 218.271446 308.727142 
L 333.560702 109.040293 
" clip-path="url(#p7dcbdd318a)" style="fill: none; stroke-dasharray: 1,1.65; stroke-dashoffset: 0; stroke: #000000"/>
   </g>
   <g id="line2d_28">
    <path d="M 172.155744 468.476622 
L 102.98219 348.664512 
" clip-path="url(#p7dcbdd318a)" style="fill: none; stroke-dasharray: 1,1.65; stroke-dashoffset: 0; stroke: #000000"/>
   </g>
   <g id="line2d_29">
    <path d="M 172.155744 468.476622 
L 218.271446 388.601882 
" clip-path="url(#p7dcbdd318a)" style="fill: none; stroke-dasharray: 1,1.65; stroke-dashoffset: 0; stroke: #000000"/>
   </g>
   <g id="line2d_30">
    <path d="M 102.98219 348.664512 
L 195.213595 348.664512 
" clip-path="url(#p7dcbdd318a)" style="fill: none; stroke-dasharray: 1,1.65; stroke-dashoffset: 0; stroke: #000000"/>
   </g>
   <g id="line2d_31">
    <path d="M 448.849959 468.476622 
L 379.676405 348.664512 
" clip-path="url(#p7dcbdd318a)" style="fill: none; stroke-dasharray: 1,1.65; stroke-dashoffset: 0; stroke: #000000"/>
   </g>
   <g id="line2d_32">
    <path d="M 448.849959 468.476622 
L 494.965661 388.601882 
" clip-path="url(#p7dcbdd318a)" style="fill: none; stroke-dasharray: 1,1.65; stroke-dashoffset: 0; stroke: #000000"/>
   </g>
   <g id="line2d_33">
    <path d="M 379.676405 348.664512 
L 471.90781 348.664512 
" clip-path="url(#p7dcbdd318a)" style="fill: none; stroke-dasharray: 1,1.65; stroke-dashoffset: 0; stroke: #000000"/>
   </g>
   <g id="line2d_34">
    <path d="M 241.329298 109.040293 
L 356.618554 308.727142 
" clip-path="url(#p7dcbdd318a)" style="fill: none; stroke-dasharray: 1,1.65; stroke-dashoffset: 0; stroke: #000000"/>
   </g>
   <g id="line2d_35">
    <path d="M 241.329298 348.664512 
L 356.618554 148.977663 
" clip-path="url(#p7dcbdd318a)" style="fill: none; stroke-dasharray: 1,1.65; stroke-dashoffset: 0; stroke: #000000"/>
   </g>
   <g id="line2d_36">
    <path d="M 218.271446 468.476622 
L 126.040041 308.727142 
" clip-path="url(#p7dcbdd318a)" style="fill: none; stroke-dasharray: 1,1.65; stroke-dashoffset: 0; stroke: #000000"/>
   </g>
   <g id="line2d_37">
    <path d="M 218.271446 468.476622 
L 241.329298 428.539252 
" clip-path="url(#p7dcbdd318a)" style="fill: none; stroke-dasharray: 1,1.65; stroke-dashoffset: 0; stroke: #000000"/>
   </g>
   <g id="line2d_38">
    <path d="M 126.040041 308.727142 
L 172.155744 308.727142 
" clip-path="url(#p7dcbdd318a)" style="fill: none; stroke-dasharray: 1,1.65; stroke-dashoffset: 0; stroke: #000000"/>
   </g>
   <g id="line2d_39">
    <path d="M 494.965661 468.476622 
L 402.734256 308.727142 
" clip-path="url(#p7dcbdd318a)" style="fill: none; stroke-dasharray: 1,1.65; stroke-dashoffset: 0; stroke: #000000"/>
   </g>
   <g id="line2d_40">
    <path d="M 494.965661 468.476622 
L 518.023512 428.539252 
" clip-path="url(#p7dcbdd318a)" style="fill: none; stroke-dasharray: 1,1.65; stroke-dashoffset: 0; stroke: #000000"/>
   </g>
   <g id="line2d_41">
    <path d="M 402.734256 308.727142 
L 448.849959 308.727142 
" clip-path="url(#p7dcbdd318a)" style="fill: none; stroke-dasharray: 1,1.65; stroke-dashoffset: 0; stroke: #000000"/>
   </g>
   <g id="line2d_42">
    <path d="M 264.387149 69.102923 
L 379.676405 268.789773 
" clip-path="url(#p7dcbdd318a)" style="fill: none; stroke-dasharray: 1,1.65; stroke-dashoffset: 0; stroke: #000000"/>
   </g>
   <g id="line2d_43">
    <path d="M 264.387149 388.601882 
L 379.676405 188.915033 
" clip-path="url(#p7dcbdd318a)" style="fill: none; stroke-dasharray: 1,1.65; stroke-dashoffset: 0; stroke: #000000"/>
   </g>
   <g id="line2d_44">
    <path d="M 264.387149 468.476622 
L 149.097893 268.789773 
" clip-path="url(#p7dcbdd318a)" style="fill: none; stroke-dasharray: 1,1.65; stroke-dashoffset: 0; stroke: #000000"/>
   </g>
   <g id="line2d_45">
    <path d="M 264.387149 468.476622 
L 264.387149 468.476622 
" clip-path="url(#p7dcbdd318a)" style="fill: none; stroke-dasharray: 1,1.65; stroke-dashoffset: 0; stroke: #000000"/>
   </g>
   <g id="line2d_46">
    <path d="M 149.097893 268.789773 
L 149.097893 268.789773 
" clip-path="url(#p7dcbdd318a)" style="fill: none; stroke-dasharray: 1,1.65; stroke-dashoffset: 0; stroke: #000000"/>
   </g>
   <g id="line2d_47">
    <path d="M 541.081364 468.476622 
L 425.792107 268.789773 
" clip-path="url(#p7dcbdd318a)" style="fill: none; stroke-dasharray: 1,1.65; stroke-dashoffset: 0; stroke: #000000"/>
   </g>
   <g id="line2d_48">
    <path d="M 541.081364 468.476622 
L 541.081364 468.476622 
" clip-path="url(#p7dcbdd318a)" style="fill: none; stroke-dasharray: 1,1.65; stroke-dashoffset: 0; stroke: #000000"/>
   </g>
   <g id="line2d_49">
    <path d="M 425.792107 268.789773 
L 425.792107 268.789773 
" clip-path="url(#p7dcbdd318a)" style="fill: none; stroke-dasharray: 1,1.65; stroke-dashoffset: 0; stroke: #000000"/>
   </g>
   <g id="line2d_50">
    <path d="M 287.445 29.165553 
L 402.734256 228.852403 
" clip-path="url(#p7dcbdd318a)" style="fill: none; stroke-dasharray: 1,1.65; stroke-dashoffset: 0; stroke: #000000"/>
   </g>
   <g id="line2d_51">
    <path d="M 287.445 428.539252 
L 402.734256 228.852403 
" clip-path="url(#p7dcbdd318a)" style="fill: none; stroke-dasharray: 1,1.65; stroke-dashoffset: 0; stroke: #000000"/>
   </g>
   <g id="text_1">
    <!-- 80 -->
    <g transform="translate(73.561839 478.153352) scale(0.1 -0.1)">
     <defs>
      <path id="DejaVuSans-38" d="M 2034 2216 
Q 1584 2216 1326 1975 
Q 1069 1734 1069 1313 
Q 1069 891 1326 650 
Q 1584 409 2034 409 
Q 2484 409 2743 651 
Q 3003 894 3003 1313 
Q 3003 1734 2745 1975 
Q 2488 2216 2034 2216 
z
M 1403 2484 
Q 997 2584 770 2862 
Q 544 3141 544 3541 
Q 544 4100 942 4425 
Q 1341 4750 2034 4750 
Q 2731 4750 3128 4425 
Q 3525 4100 3525 3541 
Q 3525 3141 3298 2862 
Q 3072 2584 2669 2484 
Q 3125 2378 3379 2068 
Q 3634 1759 3634 1313 
Q 3634 634 3220 271 
Q 2806 -91 2034 -91 
Q 1263 -91 848 271 
Q 434 634 434 1313 
Q 434 1759 690 2068 
Q 947 2378 1403 2484 
z
M 1172 3481 
Q 1172 3119 1398 2916 
Q 1625 2713 2034 2713 
Q 2441 2713 2670 2916 
Q 2900 3119 2900 3481 
Q 2900 3844 2670 4047 
Q 2441 4250 2034 4250 
Q 1625 4250 1398 4047 
Q 1172 3844 1172 3481 
z
" transform="scale(0.015625)"/>
      <path id="DejaVuSans-30" d="M 2034 4250 
Q 1547 4250 1301 3770 
Q 1056 3291 1056 2328 
Q 1056 1369 1301 889 
Q 1547 409 2034 409 
Q 2525 409 2770 889 
Q 3016 1369 3016 2328 
Q 3016 3291 2770 3770 
Q 2525 4250 2034 4250 
z
M 2034 4750 
Q 2819 4750 3233 4129 
Q 3647 3509 3647 2328 
Q 3647 1150 3233 529 
Q 2819 -91 2034 -91 
Q 1250 -91 836 529 
Q 422 1150 422 2328 
Q 422 3509 836 4129 
Q 1250 4750 2034 4750 
z
" transform="scale(0.015625)"/>
     </defs>
     <use xlink:href="#DejaVuSans-38"/>
     <use xlink:href="#DejaVuSans-30" transform="translate(63.623047 0)"/>
    </g>
   </g>
   <g id="text_2">
    <!-- 20 -->
    <g transform="translate(172.579846 301.138066) rotate(-300) scale(0.1 -0.1)">
     <defs>
      <path id="DejaVuSans-32" d="M 1228 531 
L 3431 531 
L 3431 0 
L 469 0 
L 469 531 
Q 828 903 1448 1529 
Q 2069 2156 2228 2338 
Q 2531 2678 2651 2914 
Q 2772 3150 2772 3378 
Q 2772 3750 2511 3984 
Q 2250 4219 1831 4219 
Q 1534 4219 1204 4116 
Q 875 4013 500 3803 
L 500 4441 
Q 881 4594 1212 4672 
Q 1544 4750 1819 4750 
Q 2544 4750 2975 4387 
Q 3406 4025 3406 3419 
Q 3406 3131 3298 2873 
Q 3191 2616 2906 2266 
Q 2828 2175 2409 1742 
Q 1991 1309 1228 531 
z
" transform="scale(0.015625)"/>
     </defs>
     <use xlink:href="#DejaVuSans-32"/>
     <use xlink:href="#DejaVuSans-30" transform="translate(63.623047 0)"/>
    </g>
   </g>
   <g id="text_3">
    <!-- 20 -->
    <g transform="translate(50.079885 431.970348) rotate(-60) scale(0.1 -0.1)">
     <use xlink:href="#DejaVuSans-32"/>
     <use xlink:href="#DejaVuSans-30" transform="translate(63.623047 0)"/>
    </g>
   </g>
   <g id="text_4">
    <!-- 20 -->
    <g transform="translate(350.256054 478.153352) scale(0.1 -0.1)">
     <use xlink:href="#DejaVuSans-32"/>
     <use xlink:href="#DejaVuSans-30" transform="translate(63.623047 0)"/>
    </g>
   </g>
   <g id="text_5">
    <!-- 80 -->
    <g transform="translate(449.274061 301.138066) rotate(-300) scale(0.1 -0.1)">
     <use xlink:href="#DejaVuSans-38"/>
     <use xlink:href="#DejaVuSans-30" transform="translate(63.623047 0)"/>
    </g>
   </g>
   <g id="text_6">
    <!-- 80 -->
    <g transform="translate(326.7741 431.970348) rotate(-60) scale(0.1 -0.1)">
     <use xlink:href="#DejaVuSans-38"/>
     <use xlink:href="#DejaVuSans-30" transform="translate(63.623047 0)"/>
    </g>
   </g>
   <g id="text_7">
    <!-- 20 -->
    <g transform="translate(188.426993 192.346129) rotate(-60) scale(0.1 -0.1)">
     <use xlink:href="#DejaVuSans-32"/>
     <use xlink:href="#DejaVuSans-30" transform="translate(63.623047 0)"/>
    </g>
   </g>
   <g id="text_8">
    <!-- 80 -->
    <g transform="translate(315.706331 398.950334) rotate(-60) scale(0.1 -0.1)">
     <use xlink:href="#DejaVuSans-38"/>
     <use xlink:href="#DejaVuSans-30" transform="translate(63.623047 0)"/>
    </g>
   </g>
   <g id="text_9">
    <!-- 20 -->
    <g transform="translate(183.647615 268.118051) rotate(-300) scale(0.1 -0.1)">
     <use xlink:href="#DejaVuSans-32"/>
     <use xlink:href="#DejaVuSans-30" transform="translate(63.623047 0)"/>
    </g>
   </g>
   <g id="text_10">
    <!-- 80 -->
    <g transform="translate(310.926954 61.513846) rotate(-300) scale(0.1 -0.1)">
     <use xlink:href="#DejaVuSans-38"/>
     <use xlink:href="#DejaVuSans-30" transform="translate(63.623047 0)"/>
    </g>
   </g>
   <g id="text_11">
    <!-- 60 -->
    <g transform="translate(119.677541 478.153352) scale(0.1 -0.1)">
     <defs>
      <path id="DejaVuSans-36" d="M 2113 2584 
Q 1688 2584 1439 2293 
Q 1191 2003 1191 1497 
Q 1191 994 1439 701 
Q 1688 409 2113 409 
Q 2538 409 2786 701 
Q 3034 994 3034 1497 
Q 3034 2003 2786 2293 
Q 2538 2584 2113 2584 
z
M 3366 4563 
L 3366 3988 
Q 3128 4100 2886 4159 
Q 2644 4219 2406 4219 
Q 1781 4219 1451 3797 
Q 1122 3375 1075 2522 
Q 1259 2794 1537 2939 
Q 1816 3084 2150 3084 
Q 2853 3084 3261 2657 
Q 3669 2231 3669 1497 
Q 3669 778 3244 343 
Q 2819 -91 2113 -91 
Q 1303 -91 875 529 
Q 447 1150 447 2328 
Q 447 3434 972 4092 
Q 1497 4750 2381 4750 
Q 2619 4750 2861 4703 
Q 3103 4656 3366 4563 
z
" transform="scale(0.015625)"/>
     </defs>
     <use xlink:href="#DejaVuSans-36"/>
     <use xlink:href="#DejaVuSans-30" transform="translate(63.623047 0)"/>
    </g>
   </g>
   <g id="text_12">
    <!-- 40 -->
    <g transform="translate(195.637698 341.075435) rotate(-300) scale(0.1 -0.1)">
     <defs>
      <path id="DejaVuSans-34" d="M 2419 4116 
L 825 1625 
L 2419 1625 
L 2419 4116 
z
M 2253 4666 
L 3047 4666 
L 3047 1625 
L 3713 1625 
L 3713 1100 
L 3047 1100 
L 3047 0 
L 2419 0 
L 2419 1100 
L 313 1100 
L 313 1709 
L 2253 4666 
z
" transform="scale(0.015625)"/>
     </defs>
     <use xlink:href="#DejaVuSans-34"/>
     <use xlink:href="#DejaVuSans-30" transform="translate(63.623047 0)"/>
    </g>
   </g>
   <g id="text_13">
    <!-- 40 -->
    <g transform="translate(73.137736 392.032979) rotate(-60) scale(0.1 -0.1)">
     <use xlink:href="#DejaVuSans-34"/>
     <use xlink:href="#DejaVuSans-30" transform="translate(63.623047 0)"/>
    </g>
   </g>
   <g id="text_14">
    <!-- 40 -->
    <g transform="translate(396.371756 478.153352) scale(0.1 -0.1)">
     <use xlink:href="#DejaVuSans-34"/>
     <use xlink:href="#DejaVuSans-30" transform="translate(63.623047 0)"/>
    </g>
   </g>
   <g id="text_15">
    <!-- 60 -->
    <g transform="translate(472.331912 341.075435) rotate(-300) scale(0.1 -0.1)">
     <use xlink:href="#DejaVuSans-36"/>
     <use xlink:href="#DejaVuSans-30" transform="translate(63.623047 0)"/>
    </g>
   </g>
   <g id="text_16">
    <!-- 60 -->
    <g transform="translate(349.831951 392.032979) rotate(-60) scale(0.1 -0.1)">
     <use xlink:href="#DejaVuSans-36"/>
     <use xlink:href="#DejaVuSans-30" transform="translate(63.623047 0)"/>
    </g>
   </g>
   <g id="text_17">
    <!-- 40 -->
    <g transform="translate(211.484844 152.408759) rotate(-60) scale(0.1 -0.1)">
     <use xlink:href="#DejaVuSans-34"/>
     <use xlink:href="#DejaVuSans-30" transform="translate(63.623047 0)"/>
    </g>
   </g>
   <g id="text_18">
    <!-- 60 -->
    <g transform="translate(338.764183 359.012964) rotate(-60) scale(0.1 -0.1)">
     <use xlink:href="#DejaVuSans-36"/>
     <use xlink:href="#DejaVuSans-30" transform="translate(63.623047 0)"/>
    </g>
   </g>
   <g id="text_19">
    <!-- 40 -->
    <g transform="translate(206.705466 308.055421) rotate(-300) scale(0.1 -0.1)">
     <use xlink:href="#DejaVuSans-34"/>
     <use xlink:href="#DejaVuSans-30" transform="translate(63.623047 0)"/>
    </g>
   </g>
   <g id="text_20">
    <!-- 60 -->
    <g transform="translate(333.984805 101.451216) rotate(-300) scale(0.1 -0.1)">
     <use xlink:href="#DejaVuSans-36"/>
     <use xlink:href="#DejaVuSans-30" transform="translate(63.623047 0)"/>
    </g>
   </g>
   <g id="text_21">
    <!-- 40 -->
    <g transform="translate(165.793244 478.153352) scale(0.1 -0.1)">
     <use xlink:href="#DejaVuSans-34"/>
     <use xlink:href="#DejaVuSans-30" transform="translate(63.623047 0)"/>
    </g>
   </g>
   <g id="text_22">
    <!-- 60 -->
    <g transform="translate(218.695549 381.012805) rotate(-300) scale(0.1 -0.1)">
     <use xlink:href="#DejaVuSans-36"/>
     <use xlink:href="#DejaVuSans-30" transform="translate(63.623047 0)"/>
    </g>
   </g>
   <g id="text_23">
    <!-- 60 -->
    <g transform="translate(96.195588 352.095609) rotate(-60) scale(0.1 -0.1)">
     <use xlink:href="#DejaVuSans-36"/>
     <use xlink:href="#DejaVuSans-30" transform="translate(63.623047 0)"/>
    </g>
   </g>
   <g id="text_24">
    <!-- 60 -->
    <g transform="translate(442.487459 478.153352) scale(0.1 -0.1)">
     <use xlink:href="#DejaVuSans-36"/>
     <use xlink:href="#DejaVuSans-30" transform="translate(63.623047 0)"/>
    </g>
   </g>
   <g id="text_25">
    <!-- 40 -->
    <g transform="translate(495.389764 381.012805) rotate(-300) scale(0.1 -0.1)">
     <use xlink:href="#DejaVuSans-34"/>
     <use xlink:href="#DejaVuSans-30" transform="translate(63.623047 0)"/>
    </g>
   </g>
   <g id="text_26">
    <!-- 40 -->
    <g transform="translate(372.889802 352.095609) rotate(-60) scale(0.1 -0.1)">
     <use xlink:href="#DejaVuSans-34"/>
     <use xlink:href="#DejaVuSans-30" transform="translate(63.623047 0)"/>
    </g>
   </g>
   <g id="text_27">
    <!-- 60 -->
    <g transform="translate(234.542695 112.47139) rotate(-60) scale(0.1 -0.1)">
     <use xlink:href="#DejaVuSans-36"/>
     <use xlink:href="#DejaVuSans-30" transform="translate(63.623047 0)"/>
    </g>
   </g>
   <g id="text_28">
    <!-- 40 -->
    <g transform="translate(361.822034 319.075594) rotate(-60) scale(0.1 -0.1)">
     <use xlink:href="#DejaVuSans-34"/>
     <use xlink:href="#DejaVuSans-30" transform="translate(63.623047 0)"/>
    </g>
   </g>
   <g id="text_29">
    <!-- 60 -->
    <g transform="translate(229.763317 347.992791) rotate(-300) scale(0.1 -0.1)">
     <use xlink:href="#DejaVuSans-36"/>
     <use xlink:href="#DejaVuSans-30" transform="translate(63.623047 0)"/>
    </g>
   </g>
   <g id="text_30">
    <!-- 40 -->
    <g transform="translate(357.042656 141.388586) rotate(-300) scale(0.1 -0.1)">
     <use xlink:href="#DejaVuSans-34"/>
     <use xlink:href="#DejaVuSans-30" transform="translate(63.623047 0)"/>
    </g>
   </g>
   <g id="text_31">
    <!-- 20 -->
    <g transform="translate(211.908946 478.153352) scale(0.1 -0.1)">
     <use xlink:href="#DejaVuSans-32"/>
     <use xlink:href="#DejaVuSans-30" transform="translate(63.623047 0)"/>
    </g>
   </g>
   <g id="text_32">
    <!-- 80 -->
    <g transform="translate(241.7534 420.950175) rotate(-300) scale(0.1 -0.1)">
     <use xlink:href="#DejaVuSans-38"/>
     <use xlink:href="#DejaVuSans-30" transform="translate(63.623047 0)"/>
    </g>
   </g>
   <g id="text_33">
    <!-- 80 -->
    <g transform="translate(119.253439 312.158239) rotate(-60) scale(0.1 -0.1)">
     <use xlink:href="#DejaVuSans-38"/>
     <use xlink:href="#DejaVuSans-30" transform="translate(63.623047 0)"/>
    </g>
   </g>
   <g id="text_34">
    <!-- 80 -->
    <g transform="translate(488.603161 478.153352) scale(0.1 -0.1)">
     <use xlink:href="#DejaVuSans-38"/>
     <use xlink:href="#DejaVuSans-30" transform="translate(63.623047 0)"/>
    </g>
   </g>
   <g id="text_35">
    <!-- 20 -->
    <g transform="translate(518.447615 420.950175) rotate(-300) scale(0.1 -0.1)">
     <use xlink:href="#DejaVuSans-32"/>
     <use xlink:href="#DejaVuSans-30" transform="translate(63.623047 0)"/>
    </g>
   </g>
   <g id="text_36">
    <!-- 20 -->
    <g transform="translate(395.947654 312.158239) rotate(-60) scale(0.1 -0.1)">
     <use xlink:href="#DejaVuSans-32"/>
     <use xlink:href="#DejaVuSans-30" transform="translate(63.623047 0)"/>
    </g>
   </g>
   <g id="text_37">
    <!-- 80 -->
    <g transform="translate(257.600546 72.53402) rotate(-60) scale(0.1 -0.1)">
     <use xlink:href="#DejaVuSans-38"/>
     <use xlink:href="#DejaVuSans-30" transform="translate(63.623047 0)"/>
    </g>
   </g>
   <g id="text_38">
    <!-- 20 -->
    <g transform="translate(384.879885 279.138224) rotate(-60) scale(0.1 -0.1)">
     <use xlink:href="#DejaVuSans-32"/>
     <use xlink:href="#DejaVuSans-30" transform="translate(63.623047 0)"/>
    </g>
   </g>
   <g id="text_39">
    <!-- 80 -->
    <g transform="translate(252.821169 387.930161) rotate(-300) scale(0.1 -0.1)">
     <use xlink:href="#DejaVuSans-38"/>
     <use xlink:href="#DejaVuSans-30" transform="translate(63.623047 0)"/>
    </g>
   </g>
   <g id="text_40">
    <!-- 20 -->
    <g transform="translate(380.100507 181.325956) rotate(-300) scale(0.1 -0.1)">
     <use xlink:href="#DejaVuSans-32"/>
     <use xlink:href="#DejaVuSans-30" transform="translate(63.623047 0)"/>
    </g>
   </g>
   <g id="text_41">
    <!-- %$Ca^{2+}$ -->
    <g transform="translate(127.257893 494.845723) scale(0.12 -0.12)">
     <defs>
      <path id="DejaVuSans-25" d="M 4653 2053 
Q 4381 2053 4226 1822 
Q 4072 1591 4072 1178 
Q 4072 772 4226 539 
Q 4381 306 4653 306 
Q 4919 306 5073 539 
Q 5228 772 5228 1178 
Q 5228 1588 5073 1820 
Q 4919 2053 4653 2053 
z
M 4653 2450 
Q 5147 2450 5437 2106 
Q 5728 1763 5728 1178 
Q 5728 594 5436 251 
Q 5144 -91 4653 -91 
Q 4153 -91 3862 251 
Q 3572 594 3572 1178 
Q 3572 1766 3864 2108 
Q 4156 2450 4653 2450 
z
M 1428 4353 
Q 1159 4353 1004 4120 
Q 850 3888 850 3481 
Q 850 3069 1003 2837 
Q 1156 2606 1428 2606 
Q 1700 2606 1854 2837 
Q 2009 3069 2009 3481 
Q 2009 3884 1853 4118 
Q 1697 4353 1428 4353 
z
M 4250 4750 
L 4750 4750 
L 1831 -91 
L 1331 -91 
L 4250 4750 
z
M 1428 4750 
Q 1922 4750 2215 4408 
Q 2509 4066 2509 3481 
Q 2509 2891 2217 2550 
Q 1925 2209 1428 2209 
Q 931 2209 642 2551 
Q 353 2894 353 3481 
Q 353 4063 643 4406 
Q 934 4750 1428 4750 
z
" transform="scale(0.015625)"/>
      <path id="DejaVuSans-Oblique-43" d="M 4447 4306 
L 4319 3641 
Q 4019 3944 3683 4091 
Q 3347 4238 2956 4238 
Q 2422 4238 2017 3981 
Q 1613 3725 1319 3200 
Q 1131 2863 1032 2486 
Q 934 2109 934 1728 
Q 934 1091 1264 756 
Q 1594 422 2222 422 
Q 2656 422 3056 561 
Q 3456 700 3834 978 
L 3688 231 
Q 3316 72 2936 -9 
Q 2556 -91 2175 -91 
Q 1278 -91 773 396 
Q 269 884 269 1753 
Q 269 2309 461 2846 
Q 653 3384 1013 3828 
Q 1394 4300 1883 4525 
Q 2372 4750 3022 4750 
Q 3422 4750 3780 4639 
Q 4138 4528 4447 4306 
z
" transform="scale(0.015625)"/>
      <path id="DejaVuSans-Oblique-61" d="M 3438 1997 
L 3047 0 
L 2472 0 
L 2578 531 
Q 2325 219 2001 64 
Q 1678 -91 1281 -91 
Q 834 -91 548 182 
Q 263 456 263 884 
Q 263 1497 752 1853 
Q 1241 2209 2100 2209 
L 2900 2209 
L 2931 2363 
Q 2938 2388 2941 2417 
Q 2944 2447 2944 2509 
Q 2944 2788 2717 2942 
Q 2491 3097 2081 3097 
Q 1800 3097 1504 3025 
Q 1209 2953 897 2809 
L 997 3341 
Q 1322 3463 1633 3523 
Q 1944 3584 2234 3584 
Q 2853 3584 3176 3315 
Q 3500 3047 3500 2534 
Q 3500 2431 3484 2292 
Q 3469 2153 3438 1997 
z
M 2816 1759 
L 2241 1759 
Q 1534 1759 1195 1570 
Q 856 1381 856 984 
Q 856 709 1029 553 
Q 1203 397 1509 397 
Q 1978 397 2328 733 
Q 2678 1069 2791 1631 
L 2816 1759 
z
" transform="scale(0.015625)"/>
      <path id="DejaVuSans-2b" d="M 2944 4013 
L 2944 2272 
L 4684 2272 
L 4684 1741 
L 2944 1741 
L 2944 0 
L 2419 0 
L 2419 1741 
L 678 1741 
L 678 2272 
L 2419 2272 
L 2419 4013 
L 2944 4013 
z
" transform="scale(0.015625)"/>
     </defs>
     <use xlink:href="#DejaVuSans-25" transform="translate(0 0.765625)"/>
     <use xlink:href="#DejaVuSans-Oblique-43" transform="translate(95.019531 0.765625)"/>
     <use xlink:href="#DejaVuSans-Oblique-61" transform="translate(164.84375 0.765625)"/>
     <use xlink:href="#DejaVuSans-32" transform="translate(230.772943 39.046875) scale(0.7)"/>
     <use xlink:href="#DejaVuSans-2b" transform="translate(288.946771 39.046875) scale(0.7)"/>
    </g>
   </g>
   <g id="text_42">
    <!-- %$Cl^{-}$ -->
    <g transform="translate(410.072107 494.845723) scale(0.12 -0.12)">
     <defs>
      <path id="DejaVuSans-Oblique-6c" d="M 1172 4863 
L 1747 4863 
L 800 0 
L 225 0 
L 1172 4863 
z
" transform="scale(0.015625)"/>
      <path id="DejaVuSans-2212" d="M 678 2272 
L 4684 2272 
L 4684 1741 
L 678 1741 
L 678 2272 
z
" transform="scale(0.015625)"/>
     </defs>
     <use xlink:href="#DejaVuSans-25" transform="translate(0 0.015625)"/>
     <use xlink:href="#DejaVuSans-Oblique-43" transform="translate(95.019531 0.015625)"/>
     <use xlink:href="#DejaVuSans-Oblique-6c" transform="translate(164.84375 0.015625)"/>
     <use xlink:href="#DejaVuSans-2212" transform="translate(200.074661 38.296875) scale(0.7)"/>
    </g>
   </g>
   <g id="text_43">
    <!-- %$Mg^{2+}$ -->
    <g transform="translate(60.669033 388.224259) rotate(-60) scale(0.12 -0.12)">
     <defs>
      <path id="DejaVuSans-Oblique-4d" d="M 1081 4666 
L 2028 4666 
L 2572 1522 
L 4378 4666 
L 5350 4666 
L 4441 0 
L 3828 0 
L 4622 4091 
L 2791 897 
L 2175 897 
L 1581 4103 
L 788 0 
L 172 0 
L 1081 4666 
z
" transform="scale(0.015625)"/>
      <path id="DejaVuSans-Oblique-67" d="M 3816 3500 
L 3219 434 
Q 3047 -456 2561 -893 
Q 2075 -1331 1253 -1331 
Q 950 -1331 690 -1286 
Q 431 -1241 206 -1147 
L 313 -588 
Q 525 -725 762 -790 
Q 1000 -856 1269 -856 
Q 1816 -856 2167 -557 
Q 2519 -259 2631 300 
L 2681 563 
Q 2441 288 2122 144 
Q 1803 0 1434 0 
Q 903 0 598 351 
Q 294 703 294 1319 
Q 294 1803 478 2267 
Q 663 2731 997 3091 
Q 1219 3328 1514 3456 
Q 1809 3584 2131 3584 
Q 2484 3584 2746 3420 
Q 3009 3256 3138 2956 
L 3238 3500 
L 3816 3500 
z
M 2950 2216 
Q 2950 2641 2750 2872 
Q 2550 3103 2181 3103 
Q 1953 3103 1747 3012 
Q 1541 2922 1394 2759 
Q 1156 2491 1023 2127 
Q 891 1763 891 1375 
Q 891 944 1092 712 
Q 1294 481 1672 481 
Q 2219 481 2584 976 
Q 2950 1472 2950 2216 
z
" transform="scale(0.015625)"/>
     </defs>
     <use xlink:href="#DejaVuSans-25" transform="translate(0 0.765625)"/>
     <use xlink:href="#DejaVuSans-Oblique-4d" transform="translate(95.019531 0.765625)"/>
     <use xlink:href="#DejaVuSans-Oblique-67" transform="translate(181.298828 0.765625)"/>
     <use xlink:href="#DejaVuSans-32" transform="translate(249.425286 39.046875) scale(0.7)"/>
     <use xlink:href="#DejaVuSans-2b" transform="translate(307.599115 39.046875) scale(0.7)"/>
    </g>
   </g>
   <g id="text_44">
    <!-- %$SO_4^{2-}$ -->
    <g transform="translate(491.754697 348.471539) rotate(-300) scale(0.12 -0.12)">
     <defs>
      <path id="DejaVuSans-Oblique-53" d="M 3859 4513 
L 3738 3897 
Q 3422 4066 3111 4152 
Q 2800 4238 2509 4238 
Q 1944 4238 1609 3991 
Q 1275 3744 1275 3334 
Q 1275 3109 1398 2989 
Q 1522 2869 2034 2731 
L 2413 2638 
Q 3053 2472 3303 2217 
Q 3553 1963 3553 1503 
Q 3553 797 2998 353 
Q 2444 -91 1538 -91 
Q 1166 -91 791 -17 
Q 416 56 38 206 
L 166 856 
Q 513 641 861 531 
Q 1209 422 1556 422 
Q 2147 422 2503 684 
Q 2859 947 2859 1369 
Q 2859 1650 2717 1795 
Q 2575 1941 2106 2059 
L 1728 2156 
Q 1081 2325 845 2545 
Q 609 2766 609 3163 
Q 609 3859 1145 4304 
Q 1681 4750 2541 4750 
Q 2875 4750 3203 4690 
Q 3531 4631 3859 4513 
z
" transform="scale(0.015625)"/>
      <path id="DejaVuSans-Oblique-4f" d="M 2919 4238 
Q 2400 4238 2003 3986 
Q 1606 3734 1313 3219 
Q 1125 2891 1026 2522 
Q 928 2153 928 1778 
Q 928 1128 1239 775 
Q 1550 422 2119 422 
Q 2631 422 3032 676 
Q 3434 931 3719 1434 
Q 3909 1772 4009 2142 
Q 4109 2513 4109 2881 
Q 4109 3528 3796 3883 
Q 3484 4238 2919 4238 
z
M 2100 -91 
Q 1241 -91 748 418 
Q 256 928 256 1813 
Q 256 2319 448 2847 
Q 641 3375 978 3788 
Q 1375 4272 1862 4511 
Q 2350 4750 2938 4750 
Q 3794 4750 4287 4245 
Q 4781 3741 4781 2869 
Q 4781 2331 4593 1812 
Q 4406 1294 4056 872 
Q 3656 384 3173 146 
Q 2691 -91 2100 -91 
z
" transform="scale(0.015625)"/>
     </defs>
     <use xlink:href="#DejaVuSans-25" transform="translate(0 0.765625)"/>
     <use xlink:href="#DejaVuSans-Oblique-53" transform="translate(95.019531 0.765625)"/>
     <use xlink:href="#DejaVuSans-Oblique-4f" transform="translate(158.496094 0.765625)"/>
     <use xlink:href="#DejaVuSans-32" transform="translate(244.407552 39.046875) scale(0.7)"/>
     <use xlink:href="#DejaVuSans-2212" transform="translate(302.58138 39.046875) scale(0.7)"/>
     <use xlink:href="#DejaVuSans-34" transform="translate(237.207031 -26.578125) scale(0.7)"/>
    </g>
   </g>
   <g id="text_45">
    <!-- %$Na^+$+%$K^+$ -->
    <g transform="translate(206.856432 333.324207) rotate(-300) scale(0.12 -0.12)">
     <defs>
      <path id="DejaVuSans-Oblique-4e" d="M 1081 4666 
L 1931 4666 
L 3219 666 
L 4000 4666 
L 4616 4666 
L 3706 0 
L 2853 0 
L 1569 4025 
L 788 0 
L 172 0 
L 1081 4666 
z
" transform="scale(0.015625)"/>
      <path id="DejaVuSans-Oblique-4b" d="M 1081 4666 
L 1716 4666 
L 1331 2700 
L 3781 4666 
L 4622 4666 
L 1850 2438 
L 3878 0 
L 3109 0 
L 1247 2272 
L 806 0 
L 172 0 
L 1081 4666 
z
" transform="scale(0.015625)"/>
     </defs>
     <use xlink:href="#DejaVuSans-25" transform="translate(0 0.826562)"/>
     <use xlink:href="#DejaVuSans-Oblique-4e" transform="translate(95.019531 0.826562)"/>
     <use xlink:href="#DejaVuSans-Oblique-61" transform="translate(169.824219 0.826562)"/>
     <use xlink:href="#DejaVuSans-2b" transform="translate(249.391107 39.107812) scale(0.7)"/>
     <use xlink:href="#DejaVuSans-2b" transform="translate(324.415521 0.826562)"/>
     <use xlink:href="#DejaVuSans-25" transform="translate(408.204583 0.826562)"/>
     <use xlink:href="#DejaVuSans-Oblique-4b" transform="translate(503.224115 0.826562)"/>
     <use xlink:href="#DejaVuSans-2b" transform="translate(589.454753 39.107812) scale(0.7)"/>
    </g>
   </g>
   <g id="text_46">
    <!-- %$HCO_3^-$+%$CO_3^{2-}$ -->
    <g transform="translate(321.947556 413.965021) rotate(-60) scale(0.12 -0.12)">
     <defs>
      <path id="DejaVuSans-Oblique-48" d="M 1081 4666 
L 1716 4666 
L 1344 2753 
L 3634 2753 
L 4006 4666 
L 4641 4666 
L 3731 0 
L 3097 0 
L 3531 2222 
L 1241 2222 
L 806 0 
L 172 0 
L 1081 4666 
z
" transform="scale(0.015625)"/>
      <path id="DejaVuSans-33" d="M 2597 2516 
Q 3050 2419 3304 2112 
Q 3559 1806 3559 1356 
Q 3559 666 3084 287 
Q 2609 -91 1734 -91 
Q 1441 -91 1130 -33 
Q 819 25 488 141 
L 488 750 
Q 750 597 1062 519 
Q 1375 441 1716 441 
Q 2309 441 2620 675 
Q 2931 909 2931 1356 
Q 2931 1769 2642 2001 
Q 2353 2234 1838 2234 
L 1294 2234 
L 1294 2753 
L 1863 2753 
Q 2328 2753 2575 2939 
Q 2822 3125 2822 3475 
Q 2822 3834 2567 4026 
Q 2313 4219 1838 4219 
Q 1578 4219 1281 4162 
Q 984 4106 628 3988 
L 628 4550 
Q 988 4650 1302 4700 
Q 1616 4750 1894 4750 
Q 2613 4750 3031 4423 
Q 3450 4097 3450 3541 
Q 3450 3153 3228 2886 
Q 3006 2619 2597 2516 
z
" transform="scale(0.015625)"/>
     </defs>
     <use xlink:href="#DejaVuSans-25" transform="translate(0 0.765625)"/>
     <use xlink:href="#DejaVuSans-Oblique-48" transform="translate(95.019531 0.765625)"/>
     <use xlink:href="#DejaVuSans-Oblique-43" transform="translate(170.214844 0.765625)"/>
     <use xlink:href="#DejaVuSans-Oblique-4f" transform="translate(240.039062 0.765625)"/>
     <use xlink:href="#DejaVuSans-2212" transform="translate(339.588216 39.046875) scale(0.7)"/>
     <use xlink:href="#DejaVuSans-33" transform="translate(318.75 -26.578125) scale(0.7)"/>
     <use xlink:href="#DejaVuSans-2b" transform="translate(414.61263 0.765625)"/>
     <use xlink:href="#DejaVuSans-25" transform="translate(498.401693 0.765625)"/>
     <use xlink:href="#DejaVuSans-Oblique-43" transform="translate(593.421224 0.765625)"/>
     <use xlink:href="#DejaVuSans-Oblique-4f" transform="translate(663.245443 0.765625)"/>
     <use xlink:href="#DejaVuSans-32" transform="translate(749.156901 39.046875) scale(0.7)"/>
     <use xlink:href="#DejaVuSans-2212" transform="translate(807.330729 39.046875) scale(0.7)"/>
     <use xlink:href="#DejaVuSans-33" transform="translate(741.95638 -26.578125) scale(0.7)"/>
    </g>
   </g>
   <g id="text_47">
    <!-- %$SO_4^{2-}$+%$Cl^-$ -->
    <g transform="translate(187.359783 167.511881) rotate(-60) scale(0.12 -0.12)">
     <use xlink:href="#DejaVuSans-25" transform="translate(0 0.765625)"/>
     <use xlink:href="#DejaVuSans-Oblique-53" transform="translate(95.019531 0.765625)"/>
     <use xlink:href="#DejaVuSans-Oblique-4f" transform="translate(158.496094 0.765625)"/>
     <use xlink:href="#DejaVuSans-32" transform="translate(244.407552 39.046875) scale(0.7)"/>
     <use xlink:href="#DejaVuSans-2212" transform="translate(302.58138 39.046875) scale(0.7)"/>
     <use xlink:href="#DejaVuSans-34" transform="translate(237.207031 -26.578125) scale(0.7)"/>
     <use xlink:href="#DejaVuSans-2b" transform="translate(377.605794 0.765625)"/>
     <use xlink:href="#DejaVuSans-25" transform="translate(461.394857 0.765625)"/>
     <use xlink:href="#DejaVuSans-Oblique-43" transform="translate(556.414388 0.765625)"/>
     <use xlink:href="#DejaVuSans-Oblique-6c" transform="translate(626.238607 0.765625)"/>
     <use xlink:href="#DejaVuSans-2212" transform="translate(675.107214 39.046875) scale(0.7)"/>
    </g>
   </g>
   <g id="text_48">
    <!-- %$Ca^{2+}$+%$Mg^{2+}$ -->
    <g transform="translate(339.453859 85.51875) rotate(-300) scale(0.12 -0.12)">
     <use xlink:href="#DejaVuSans-25" transform="translate(0 0.765625)"/>
     <use xlink:href="#DejaVuSans-Oblique-43" transform="translate(95.019531 0.765625)"/>
     <use xlink:href="#DejaVuSans-Oblique-61" transform="translate(164.84375 0.765625)"/>
     <use xlink:href="#DejaVuSans-32" transform="translate(230.772943 39.046875) scale(0.7)"/>
     <use xlink:href="#DejaVuSans-2b" transform="translate(288.946771 39.046875) scale(0.7)"/>
     <use xlink:href="#DejaVuSans-2b" transform="translate(363.971185 0.765625)"/>
     <use xlink:href="#DejaVuSans-25" transform="translate(447.760247 0.765625)"/>
     <use xlink:href="#DejaVuSans-Oblique-4d" transform="translate(542.779779 0.765625)"/>
     <use xlink:href="#DejaVuSans-Oblique-67" transform="translate(629.059076 0.765625)"/>
     <use xlink:href="#DejaVuSans-32" transform="translate(697.185534 39.046875) scale(0.7)"/>
     <use xlink:href="#DejaVuSans-2b" transform="translate(755.359362 39.046875) scale(0.7)"/>
    </g>
   </g>
   <g id="legend_1">
    <g id="PathCollection_7">
     <g>
      <use xlink:href="#m118993136e" x="24" y="84.373397" style="fill: #ff0000; fill-opacity: 0.8; stroke: #000000; stroke-opacity: 0.8"/>
     </g>
    </g>
    <g id="text_49">
     <!-- F-008A -->
     <g transform="translate(39 87.523397) scale(0.12 -0.12)">
      <defs>
       <path id="DejaVuSans-46" d="M 628 4666 
L 3309 4666 
L 3309 4134 
L 1259 4134 
L 1259 2759 
L 3109 2759 
L 3109 2228 
L 1259 2228 
L 1259 0 
L 628 0 
L 628 4666 
z
" transform="scale(0.015625)"/>
       <path id="DejaVuSans-2d" d="M 313 2009 
L 1997 2009 
L 1997 1497 
L 313 1497 
L 313 2009 
z
" transform="scale(0.015625)"/>
       <path id="DejaVuSans-41" d="M 2188 4044 
L 1331 1722 
L 3047 1722 
L 2188 4044 
z
M 1831 4666 
L 2547 4666 
L 4325 0 
L 3669 0 
L 3244 1197 
L 1141 1197 
L 716 0 
L 50 0 
L 1831 4666 
z
" transform="scale(0.015625)"/>
      </defs>
      <use xlink:href="#DejaVuSans-46"/>
      <use xlink:href="#DejaVuSans-2d" transform="translate(57.519531 0)"/>
      <use xlink:href="#DejaVuSans-30" transform="translate(93.603516 0)"/>
      <use xlink:href="#DejaVuSans-30" transform="translate(157.226562 0)"/>
      <use xlink:href="#DejaVuSans-38" transform="translate(220.849609 0)"/>
      <use xlink:href="#DejaVuSans-41" transform="translate(284.472656 0)"/>
     </g>
    </g>
    <g id="PathCollection_8">
     <g>
      <use xlink:href="#m82a27dd721" x="24" y="98.987147" style="fill: #0000ff; fill-opacity: 0.8; stroke: #000000; stroke-opacity: 0.8"/>
     </g>
    </g>
    <g id="text_50">
     <!-- Martin -->
     <g transform="translate(39 102.137147) scale(0.12 -0.12)">
      <defs>
       <path id="DejaVuSans-4d" d="M 628 4666 
L 1569 4666 
L 2759 1491 
L 3956 4666 
L 4897 4666 
L 4897 0 
L 4281 0 
L 4281 4097 
L 3078 897 
L 2444 897 
L 1241 4097 
L 1241 0 
L 628 0 
L 628 4666 
z
" transform="scale(0.015625)"/>
       <path id="DejaVuSans-61" d="M 2194 1759 
Q 1497 1759 1228 1600 
Q 959 1441 959 1056 
Q 959 750 1161 570 
Q 1363 391 1709 391 
Q 2188 391 2477 730 
Q 2766 1069 2766 1631 
L 2766 1759 
L 2194 1759 
z
M 3341 1997 
L 3341 0 
L 2766 0 
L 2766 531 
Q 2569 213 2275 61 
Q 1981 -91 1556 -91 
Q 1019 -91 701 211 
Q 384 513 384 1019 
Q 384 1609 779 1909 
Q 1175 2209 1959 2209 
L 2766 2209 
L 2766 2266 
Q 2766 2663 2505 2880 
Q 2244 3097 1772 3097 
Q 1472 3097 1187 3025 
Q 903 2953 641 2809 
L 641 3341 
Q 956 3463 1253 3523 
Q 1550 3584 1831 3584 
Q 2591 3584 2966 3190 
Q 3341 2797 3341 1997 
z
" transform="scale(0.015625)"/>
       <path id="DejaVuSans-72" d="M 2631 2963 
Q 2534 3019 2420 3045 
Q 2306 3072 2169 3072 
Q 1681 3072 1420 2755 
Q 1159 2438 1159 1844 
L 1159 0 
L 581 0 
L 581 3500 
L 1159 3500 
L 1159 2956 
Q 1341 3275 1631 3429 
Q 1922 3584 2338 3584 
Q 2397 3584 2469 3576 
Q 2541 3569 2628 3553 
L 2631 2963 
z
" transform="scale(0.015625)"/>
       <path id="DejaVuSans-74" d="M 1172 4494 
L 1172 3500 
L 2356 3500 
L 2356 3053 
L 1172 3053 
L 1172 1153 
Q 1172 725 1289 603 
Q 1406 481 1766 481 
L 2356 481 
L 2356 0 
L 1766 0 
Q 1100 0 847 248 
Q 594 497 594 1153 
L 594 3053 
L 172 3053 
L 172 3500 
L 594 3500 
L 594 4494 
L 1172 4494 
z
" transform="scale(0.015625)"/>
       <path id="DejaVuSans-69" d="M 603 3500 
L 1178 3500 
L 1178 0 
L 603 0 
L 603 3500 
z
M 603 4863 
L 1178 4863 
L 1178 4134 
L 603 4134 
L 603 4863 
z
" transform="scale(0.015625)"/>
       <path id="DejaVuSans-6e" d="M 3513 2113 
L 3513 0 
L 2938 0 
L 2938 2094 
Q 2938 2591 2744 2837 
Q 2550 3084 2163 3084 
Q 1697 3084 1428 2787 
Q 1159 2491 1159 1978 
L 1159 0 
L 581 0 
L 581 3500 
L 1159 3500 
L 1159 2956 
Q 1366 3272 1645 3428 
Q 1925 3584 2291 3584 
Q 2894 3584 3203 3211 
Q 3513 2838 3513 2113 
z
" transform="scale(0.015625)"/>
      </defs>
      <use xlink:href="#DejaVuSans-4d"/>
      <use xlink:href="#DejaVuSans-61" transform="translate(86.279297 0)"/>
      <use xlink:href="#DejaVuSans-72" transform="translate(147.558594 0)"/>
      <use xlink:href="#DejaVuSans-74" transform="translate(188.671875 0)"/>
      <use xlink:href="#DejaVuSans-69" transform="translate(227.880859 0)"/>
      <use xlink:href="#DejaVuSans-6e" transform="translate(255.664062 0)"/>
     </g>
    </g>
   </g>
  </g>
 </g>
 <defs>
  <clipPath id="p7dcbdd318a">
   <rect x="8.445" y="7.2" width="558" height="483.242175"/>
  </clipPath>
 </defs>
</svg>
